{
    "asset" : {
        "generator" : "Khronos glTF Blender I/O v1.7.33",
        "version" : "2.0"
    },
    "scene" : 0,
    "scenes" : [
        {
            "name" : "Scene",
            "nodes" : [
                0,
                1
            ]
        }
    ],
    "nodes" : [
        {
            "mesh" : 0,
            "name" : "GroundChunk"
        },
        {
            "mesh" : 1,
            "name" : "Navmesh"
        }
    ],
    "materials" : [
        {
            "alphaCutoff" : 0.5,
            "alphaMode" : "MASK",
            "doubleSided" : true,
            "name" : "TestCliff",
            "pbrMetallicRoughness" : {
                "baseColorTexture" : {
                    "index" : 0
                },
                "metallicFactor" : 0
            }
        },
        {
            "doubleSided" : true,
            "name" : "testGrass",
            "pbrMetallicRoughness" : {
                "baseColorTexture" : {
                    "index" : 1
                },
                "metallicFactor" : 0
            }
        },
        {
            "doubleSided" : true,
            "name" : "NavMesh",
            "pbrMetallicRoughness" : {
                "baseColorFactor" : [
                    0.800000011920929,
                    0.800000011920929,
                    0.800000011920929,
                    1
                ],
                "metallicFactor" : 0,
                "roughnessFactor" : 0.5
            }
        }
    ],
    "meshes" : [
        {
            "name" : "Plane.005",
            "primitives" : [
                {
                    "attributes" : {
                        "POSITION" : 0,
                        "NORMAL" : 1,
                        "TEXCOORD_0" : 2
                    },
                    "indices" : 3,
                    "material" : 0
                },
                {
                    "attributes" : {
                        "POSITION" : 4,
                        "NORMAL" : 5,
                        "TEXCOORD_0" : 6
                    },
                    "indices" : 7,
                    "material" : 1
                }
            ]
        },
        {
            "name" : "Plane.008",
            "primitives" : [
                {
                    "attributes" : {
                        "POSITION" : 8,
                        "NORMAL" : 9,
                        "TEXCOORD_0" : 10
                    },
                    "indices" : 11,
                    "material" : 2
                }
            ]
        }
    ],
    "textures" : [
        {
            "sampler" : 0,
            "source" : 0
        },
        {
            "sampler" : 0,
            "source" : 1
        }
    ],
    "images" : [
        {
            "bufferView" : 4,
            "mimeType" : "image/png",
            "name" : "Cliff1Tileset1705-2"
        },
        {
            "bufferView" : 9,
            "mimeType" : "image/png",
            "name" : "Grass0306-2"
        }
    ],
    "accessors" : [
        {
            "bufferView" : 0,
            "componentType" : 5126,
            "count" : 468,
            "max" : [
                44,
                5,
                -36
            ],
            "min" : [
                11,
                0,
                -77
            ],
            "type" : "VEC3"
        },
        {
            "bufferView" : 1,
            "componentType" : 5126,
            "count" : 468,
            "type" : "VEC3"
        },
        {
            "bufferView" : 2,
            "componentType" : 5126,
            "count" : 468,
            "type" : "VEC2"
        },
        {
            "bufferView" : 3,
            "componentType" : 5123,
            "count" : 2013,
            "type" : "SCALAR"
        },
        {
            "bufferView" : 5,
            "componentType" : 5126,
            "count" : 38654,
            "max" : [
                100,
                5,
                0
            ],
            "min" : [
                0,
                0,
                -100
            ],
            "type" : "VEC3"
        },
        {
            "bufferView" : 6,
            "componentType" : 5126,
            "count" : 38654,
            "type" : "VEC3"
        },
        {
            "bufferView" : 7,
            "componentType" : 5126,
            "count" : 38654,
            "type" : "VEC2"
        },
        {
            "bufferView" : 8,
            "componentType" : 5123,
            "count" : 57921,
            "type" : "SCALAR"
        },
        {
            "bufferView" : 10,
            "componentType" : 5126,
            "count" : 38461,
            "max" : [
                100,
                5,
                0
            ],
            "min" : [
                0,
                0,
                -100
            ],
            "type" : "VEC3"
        },
        {
            "bufferView" : 11,
            "componentType" : 5126,
            "count" : 38461,
            "type" : "VEC3"
        },
        {
            "bufferView" : 12,
            "componentType" : 5126,
            "count" : 38461,
            "type" : "VEC2"
        },
        {
            "bufferView" : 13,
            "componentType" : 5123,
            "count" : 57672,
            "type" : "SCALAR"
        }
    ],
    "bufferViews" : [
        {
            "buffer" : 0,
            "byteLength" : 5616,
            "byteOffset" : 0
        },
        {
            "buffer" : 0,
            "byteLength" : 5616,
            "byteOffset" : 5616
        },
        {
            "buffer" : 0,
            "byteLength" : 3744,
            "byteOffset" : 11232
        },
        {
            "buffer" : 0,
            "byteLength" : 4026,
            "byteOffset" : 14976
        },
        {
            "buffer" : 0,
            "byteLength" : 72639,
            "byteOffset" : 19004
        },
        {
            "buffer" : 0,
            "byteLength" : 463848,
            "byteOffset" : 91644
        },
        {
            "buffer" : 0,
            "byteLength" : 463848,
            "byteOffset" : 555492
        },
        {
            "buffer" : 0,
            "byteLength" : 309232,
            "byteOffset" : 1019340
        },
        {
            "buffer" : 0,
            "byteLength" : 115842,
            "byteOffset" : 1328572
        },
        {
            "buffer" : 0,
            "byteLength" : 7152,
            "byteOffset" : 1444416
        },
        {
            "buffer" : 0,
            "byteLength" : 461532,
            "byteOffset" : 1451568
        },
        {
            "buffer" : 0,
            "byteLength" : 461532,
            "byteOffset" : 1913100
        },
        {
            "buffer" : 0,
            "byteLength" : 307688,
            "byteOffset" : 2374632
        },
        {
            "buffer" : 0,
            "byteLength" : 115344,
            "byteOffset" : 2682320
        }
    ],
    "samplers" : [
        {
            "magFilter" : 9728,
            "minFilter" : 9984
        }
    ],
    "buffers" : [
        {
            "byteLength" : 2797664,
            "uri" : "data:application/octet-stream;base64,"
        }
    ]
}
